<svg width="62" height="63" viewBox="0 0 62 63" fill="none" xmlns="http://www.w3.org/2000/svg">
<g id="behance">
<circle id="bg" cx="31" cy="31.5" r="27.125" fill="#105DFB"/>
<g id="behance_2">
<path fill-rule="evenodd" clip-rule="evenodd" d="M13.3223 43.0465V19.3779H24.2639C27.7783 19.3779 30.6273 22.227 30.6273 25.7414C30.6273 27.9747 29.9406 29.3581 27.4227 30.7773C30.4358 32.1502 31.2726 34.0529 31.2726 36.707C31.2726 40.2973 28.083 43.0465 24.4927 43.0465H13.3223ZM17.9523 23.2959V28.9873H23.3712C23.3712 28.9873 26.005 28.9873 26.005 26.1416C26.005 23.2959 23.3712 23.2959 23.3712 23.2959H17.9523ZM17.9523 39.038V32.8925H23.7648C24.7032 32.8925 26.671 33.3769 26.671 36.2832C26.671 38.4386 24.7335 39.0179 23.7648 39.038H17.9523Z" fill="white"/>
<path fill-rule="evenodd" clip-rule="evenodd" d="M41.172 25.8994C37.8419 25.8994 32.9073 28.291 32.9073 34.6484C32.9073 38.5195 35.0265 43.4882 41.3839 43.4882C46.4698 43.4882 48.811 39.7545 49.3458 37.8877H44.5626C44.3204 38.7353 43.382 39.6738 41.3839 39.6738C38.4777 39.6738 37.4484 37.1914 37.297 35.9502H49.3458V34.6484C49.3458 28.291 44.5021 25.8994 41.172 25.8994ZM41.172 29.5322C38.4595 29.5322 37.4585 31.7724 37.297 32.8925H44.5626C44.5626 31.7724 43.8845 29.5322 41.172 29.5322Z" fill="white"/>
<path d="M35.3898 20.7226V23.6591H46.8029V20.7226H35.3898Z" fill="white"/>
</g>
</g>
</svg>
