<svg width="56" height="55" viewBox="0 0 56 55" fill="none" xmlns="http://www.w3.org/2000/svg">
<rect x="0.875" y="0.75" width="54.25" height="54.25" rx="27.125" fill="#292D32"/>
<path d="M31.4937 8.88928L31.4762 17.2936L31.4588 25.698L30.6566 23.747V23.742L29.616 42.4516C30.6391 44.9329 31.1856 46.2586 31.1914 46.2636C31.1972 46.2686 31.7785 46.2986 32.4819 46.3286C34.6096 46.4187 37.2489 46.6138 39.2545 46.8289C39.7196 46.8789 40.1149 46.9039 40.1439 46.8839C40.173 46.8639 40.1788 38.3095 40.173 27.8691L40.1556 8.88928H31.4937Z" fill="url(#paint0_linear_252_3320)"/>
<path d="M15.8247 8.86401V27.8639C15.8247 38.3143 15.8363 46.8737 15.8538 46.8887C15.8712 46.9037 16.6211 46.8387 17.528 46.7537C18.4349 46.6686 19.6848 46.5586 20.3068 46.5135C21.2602 46.4435 24.1204 46.2884 24.4459 46.2834C24.5447 46.2834 24.5505 45.8582 24.5622 38.2343L24.5796 30.1851L25.2714 31.8659C25.376 32.1261 25.4109 32.2061 25.5156 32.4613L26.5562 13.7565C26.3352 13.2213 26.4515 13.5014 26.2015 12.8911C25.3528 10.825 24.6319 9.07912 24.6029 8.99908L24.5447 8.85901H15.8247V8.86401Z" fill="url(#paint1_linear_252_3320)"/>
<path d="M15.8247 8.86401L24.5738 30.2V30.19L25.2656 31.8708C29.1083 41.2306 31.172 46.2532 31.1837 46.2632C31.1895 46.2682 31.7708 46.2982 32.4742 46.3282C34.6019 46.4183 37.2412 46.6134 39.2468 46.8285C39.7061 46.8785 40.1072 46.9035 40.1305 46.8835L31.4569 25.6926V25.6976L30.6546 23.7466C29.8698 21.8407 29.3466 20.565 26.19 12.8911C25.3412 10.825 24.6204 9.07912 24.5913 8.99908L24.5332 8.85901H20.1789L15.8247 8.86401Z" fill="#E30A17"/>
<defs>
<linearGradient id="paint0_linear_252_3320" x1="44.0798" y1="37.303" x2="30.2161" y2="43.3914" gradientUnits="userSpaceOnUse">
<stop stop-color="#B20610"/>
<stop offset="0.255959" stop-color="#B20610"/>
<stop offset="1" stop-color="#590004"/>
</linearGradient>
<linearGradient id="paint1_linear_252_3320" x1="11.6206" y1="17.1952" x2="26.6137" y2="10.6868" gradientUnits="userSpaceOnUse">
<stop stop-color="#B20610"/>
<stop offset="0.255959" stop-color="#B20610"/>
<stop offset="1" stop-color="#590004"/>
</linearGradient>
</defs>
</svg>
