<svg width="32" height="32" viewBox="0 0 32 32" fill="none" xmlns="http://www.w3.org/2000/svg">
<g id="vuesax/linear/profile">
<g id="profile">
<path id="Vector" d="M16.2134 14.4934C16.0801 14.4801 15.9201 14.4801 15.7734 14.4934C12.6001 14.3867 10.0801 11.7867 10.0801 8.58675C10.0801 5.32008 12.7201 2.66675 16.0001 2.66675C19.2667 2.66675 21.9201 5.32008 21.9201 8.58675C21.9067 11.7867 19.3867 14.3867 16.2134 14.4934Z" stroke="#292D32" stroke-width="1.5" stroke-linecap="round" stroke-linejoin="round"/>
<path id="Vector_2" d="M9.54671 19.4133C6.32004 21.5733 6.32004 25.0933 9.54671 27.2399C13.2134 29.6933 19.2267 29.6933 22.8934 27.2399C26.12 25.0799 26.12 21.5599 22.8934 19.4133C19.24 16.9733 13.2267 16.9733 9.54671 19.4133Z" stroke="#292D32" stroke-width="1.5" stroke-linecap="round" stroke-linejoin="round"/>
</g>
</g>
</svg>
