<svg width="56" height="55" viewBox="0 0 56 55" fill="none" xmlns="http://www.w3.org/2000/svg">
<circle cx="28" cy="27.25" r="27.125" fill="#1ED760"/>
<path d="M37.7605 36.6088C37.3624 37.2404 36.5132 37.4173 35.8497 37.0383C30.6214 34.0063 24.0661 33.3241 16.3165 34.9917C15.5734 35.1433 14.8303 34.7138 14.6711 34.0063C14.5118 33.2988 14.963 32.5914 15.7061 32.4398C24.1722 30.5953 31.4441 31.3786 37.2828 34.7896C37.9463 35.1686 38.1586 35.9771 37.7605 36.6088ZM40.4676 30.848C39.9633 31.6312 38.9017 31.8586 38.079 31.4038C32.1076 27.8918 23.0045 26.8811 15.945 28.9277C15.0161 29.1804 14.0607 28.7003 13.7953 27.8412C13.5299 26.9569 14.0341 26.0473 14.963 25.7946C23.031 23.4701 33.063 24.5818 39.9368 28.5992C40.7064 29.054 40.9718 30.0647 40.4676 30.848ZM40.7064 24.8345C33.5407 20.7919 21.7306 20.4129 14.8834 22.3837C13.7953 22.7121 12.6275 22.131 12.2825 21.0698C11.9375 20.0339 12.5744 18.9221 13.6626 18.5937C21.5183 16.3197 34.5758 16.7745 42.8031 21.4235C43.785 21.9794 44.1035 23.1922 43.5196 24.127C42.9623 25.0872 41.6884 25.4156 40.7064 24.8345Z" fill="white"/>
</svg>
