<svg width="62" height="63" viewBox="0 0 62 63" fill="none" xmlns="http://www.w3.org/2000/svg">
<g id="steam">
<path id="bg" d="M4.97972 39.3022C8.33302 50.4805 18.706 58.625 30.9828 58.625C45.9728 58.625 58.1251 46.4804 58.1251 31.5C58.1251 16.5193 45.9728 4.375 30.9828 4.375C16.5983 4.375 4.82828 15.5577 3.89868 29.6979C3.89868 33.7604 3.89868 35.4557 4.97972 39.3022Z" fill="url(#paint0_linear_252_3329)"/>
<path id="steam_2" d="M29.5868 24.8406L22.945 34.4826C21.3793 34.4115 19.8032 34.8544 18.4948 35.7143L3.91044 29.7142C3.91044 29.7142 3.57296 35.2626 4.97936 39.3977L15.2897 43.6492C15.8074 45.9613 17.3945 47.9892 19.7359 48.9648C23.5668 50.5644 27.9839 48.7413 29.5775 44.9112C29.9922 43.91 30.1856 42.8599 30.1576 41.8122L39.8939 35.0298C45.581 35.0298 50.2034 30.3964 50.2034 24.7064C50.2034 19.016 45.581 14.3868 39.8939 14.3868C34.401 14.3868 29.279 19.1798 29.5868 24.8406ZM27.9909 44.2453C26.7575 47.2046 23.3546 48.6086 20.3967 47.3769C19.0321 46.8088 18.0018 45.768 17.4075 44.527L20.7636 45.917C22.945 46.8251 25.4477 45.7913 26.3545 43.612C27.264 41.4303 26.2321 38.9251 24.0519 38.017L20.5826 36.5804C21.9213 36.0729 23.4431 36.0542 24.865 36.6456C26.2985 37.2417 27.4108 38.3639 28.0002 39.7982C28.5897 41.2324 28.5874 42.8157 27.9909 44.2453ZM39.8939 31.5839C36.108 31.5839 33.0256 28.4988 33.0256 24.7064C33.0256 20.9171 36.108 17.8311 39.8939 17.8311C43.6822 17.8311 46.7646 20.9171 46.7646 24.7064C46.7646 28.4988 43.6822 31.5839 39.8939 31.5839ZM34.7474 24.696C34.7474 21.8431 37.0586 19.5292 39.9056 19.5292C42.755 19.5292 45.0661 21.8431 45.0661 24.696C45.0661 27.5491 42.755 29.8609 39.9056 29.8609C37.0586 29.8609 34.7474 27.5491 34.7474 24.696Z" fill="white"/>
</g>
<defs>
<linearGradient id="paint0_linear_252_3329" x1="31.0119" y1="4.375" x2="31.0119" y2="58.625" gradientUnits="userSpaceOnUse">
<stop stop-color="#111D2E"/>
<stop offset="0.21248" stop-color="#051839"/>
<stop offset="0.40695" stop-color="#0A1B48"/>
<stop offset="0.5811" stop-color="#132E62"/>
<stop offset="0.7376" stop-color="#144B7E"/>
<stop offset="0.87279" stop-color="#136497"/>
<stop offset="1" stop-color="#1387B8"/>
</linearGradient>
</defs>
</svg>
